<svg xmlns="http://www.w3.org/2000/svg" viewBox="0 0 100 100">
  <defs>
    <linearGradient id="boxGradient" x1="0%" y1="0%" x2="100%" y2="100%">
      <stop offset="0%" style="stop-color:#8B5E3C;stop-opacity:1" />
      <stop offset="100%" style="stop-color:#6B4423;stop-opacity:1" />
    </linearGradient>
    <linearGradient id="topGradient" x1="0%" y1="0%" x2="100%" y2="0%">
      <stop offset="0%" style="stop-color:#A67C52;stop-opacity:1" />
      <stop offset="100%" style="stop-color:#8B5E3C;stop-opacity:1" />
    </linearGradient>
    <linearGradient id="sideGradient" x1="0%" y1="0%" x2="0%" y2="100%">
      <stop offset="0%" style="stop-color:#8B5E3C;stop-opacity:1" />
      <stop offset="100%" style="stop-color:#5C3D2E;stop-opacity:1" />
    </linearGradient>
  </defs>
  
  <!-- Box Front -->
  <path d="M25 45 L25 85 L75 85 L75 45 Z" fill="url(#boxGradient)"/>
  
  <!-- Box Left Side -->
  <path d="M25 45 L25 85 L10 75 L10 35 Z" fill="url(#sideGradient)"/>
  
  <!-- Box Top -->
  <path d="M25 45 L50 30 L85 45 L75 45 L50 35 L25 45 Z" fill="url(#topGradient)"/>
  
  <!-- Box Right Side -->
  <path d="M75 45 L75 85 L90 75 L90 35 L75 45 Z" fill="#5C3D2E"/>
  
  <!-- Tape Vertical -->
  <rect x="47" y="30" width="6" height="55" fill="#D4A574" opacity="0.8"/>
  
  <!-- Tape Horizontal Top -->
  <path d="M25 55 L75 55 L75 60 L25 60 Z" fill="#D4A574" opacity="0.8"/>
  
  <!-- Tape Horizontal on Left Side -->
  <path d="M25 55 L10 48 L10 53 L25 60 Z" fill="#C89B63" opacity="0.7"/>
  
  <!-- Tape Horizontal on Right Side -->
  <path d="M75 55 L90 48 L90 53 L75 60 Z" fill="#B8895A" opacity="0.6"/>
  
  <!-- Shadow -->
  <ellipse cx="50" cy="90" rx="30" ry="5" fill="#000000" opacity="0.2"/>
</svg>

