<?xml version="1.0" encoding="utf-8"?>
<!-- Generator: Adobe Illustrator 19.1.0, SVG Export Plug-In . SVG Version: 6.00 Build 0)  -->
<svg version="1.1" id="Layer_1" xmlns="http://www.w3.org/2000/svg" xmlns:xlink="http://www.w3.org/1999/xlink" x="0px" y="0px"
	 viewBox="0 0 170.1 65.2" style="enable-background:new 0 0 170.1 65.2;" xml:space="preserve">
<style type="text/css">
	.st0{clip-path:url(#SVGID_2_);fill:url(#SVGID_3_);}
	.st1{clip-path:url(#SVGID_5_);fill:url(#SVGID_6_);}
	.st2{clip-path:url(#SVGID_8_);fill:url(#SVGID_9_);}
	.st3{clip-path:url(#SVGID_11_);fill:url(#SVGID_12_);}
	.st4{clip-path:url(#SVGID_14_);fill:url(#SVGID_15_);}
	.st5{clip-path:url(#SVGID_17_);fill:url(#SVGID_18_);}
	.st6{clip-path:url(#SVGID_20_);fill:url(#SVGID_21_);}
	.st7{clip-path:url(#SVGID_23_);fill:url(#SVGID_24_);}
	.st8{clip-path:url(#SVGID_26_);fill:url(#SVGID_27_);}
	.st9{clip-path:url(#SVGID_29_);fill:url(#SVGID_30_);}
	.st10{clip-path:url(#SVGID_32_);fill:url(#SVGID_33_);}
	.st11{clip-path:url(#SVGID_35_);fill:url(#SVGID_36_);}
	.st12{clip-path:url(#SVGID_38_);fill:url(#SVGID_39_);}
</style>
<g>
	<defs>
		<path id="SVGID_1_" d="M23.6,32C23.6,32,23.6,32,23.6,32C23.5,32,23.5,32,23.6,32C23.5,32,23.5,32,23.6,32 M25.6,8.6
			C25.7,8.7,25.7,8.7,25.6,8.6C25.7,8.7,25.7,8.7,25.6,8.6 M22.9,0c-4,0-6.1,1.7-8.4,3.1C5.4,8.9,0.6,19.5,0.2,29.8
			C-0.8,40,2.5,50.4,6.7,56c4.2,5.6,7.3,7,7.2,7.1c0.1-0.1-3-2.2-6.4-7.7c-3.4-5.5-5.3-14.5-3.5-23.2c1.4-9.1,6.4-17.1,15-21.7
			c1.6-0.9,3.7-1.8,5.3-1.9c0,0.7-0.1,1.5-0.3,2.3c-1.3,6.1-3.4,12.4-4.3,20.5c0,0.7-0.1,1.1,0,2c0.1,0.6,0,0.6,0.2,1.6
			c0.5,1.1-0.3,1.4,2.6,4.7c2.4,1.9,3.4,1.8,4,1.7c0.2,0,0.4-0.1,0.6,0c0.9-0.1,1.3-0.4,1.8-0.6c1.8-0.9,2.8-2,4-3.2
			c2.1-2.3,4-4.7,5.7-7.1c3.1-4.9,6.6-8.6,10.5-11.8c7.7-6.2,16.3-9.5,23.8-11.8C88,2.9,98.2,1.6,98.1,1.5c0,0.1-1,0-2.9-0.1
			c-4.2-0.2-12.9-0.3-24.4,1c-8.1,1.1-17.7,3.3-26.6,9.2c-4.4,2.9-8.7,6.9-12.1,11.7c-1,1.2-1.9,2.4-2.9,3.6
			c0.8-3.6,1.7-7.3,2.4-11.2c0.2-2,0.6-3.9-0.1-7.1c-0.3-1.5-1.2-4.3-3.5-6.4c-2.2-1.9-3.7-2.1-4.8-2.2c0,0-0.1,0-0.1,0H22.9z"/>
	</defs>
	<clipPath id="SVGID_2_">
		<use xlink:href="#SVGID_1_"  style="overflow:visible;"/>
	</clipPath>
	
		<linearGradient id="SVGID_3_" gradientUnits="userSpaceOnUse" x1="-478.5346" y1="2313.2092" x2="-477.8156" y2="2313.2092" gradientTransform="matrix(-6.655 59.0274 59.0274 6.655 -139675.3438 12855.2109)">
		<stop  offset="0" style="stop-color:#00ABE6"/>
		<stop  offset="1" style="stop-color:#0069B3"/>
	</linearGradient>
	<polygon class="st0" points="105.2,0.8 97,74.1 -7.8,62.3 0.5,-11 	"/>
</g>
<g>
	<defs>
		<path id="SVGID_4_" d="M59,23.2c-0.3,0-0.6,0.3-0.7,0.6v4.1c0,0.2,0.1,0.5,0.3,0.6c0.1,0.1,0.2,0.1,0.4,0.1h3.2
			c0.4,0,0.7-0.4,0.7-0.8V24c0-0.4-0.3-0.7-0.7-0.8H59z"/>
	</defs>
	<clipPath id="SVGID_5_">
		<use xlink:href="#SVGID_4_"  style="overflow:visible;"/>
	</clipPath>
	
		<linearGradient id="SVGID_6_" gradientUnits="userSpaceOnUse" x1="-471.4887" y1="2310.3984" x2="-470.7697" y2="2310.3984" gradientTransform="matrix(0 50.9983 50.9983 0 -117765.7031 24064.5703)">
		<stop  offset="0" style="stop-color:#E73088"/>
		<stop  offset="1" style="stop-color:#B90066"/>
	</linearGradient>
	<rect x="58.3" y="23.2" class="st1" width="4.7" height="5.5"/>
</g>
<g>
	<defs>
		<path id="SVGID_7_" d="M98.5,30.4c-0.4,0-0.7,0.3-0.7,0.6l-2.5,13.6L92.7,31c-0.1-0.4-0.4-0.6-0.7-0.6h-2.7
			c-0.4,0-0.7,0.3-0.7,0.6l-2.6,13.6L83.4,31c-0.1-0.4-0.4-0.6-0.7-0.6h-2.9c-0.2,0-0.4,0.1-0.6,0.3c-0.1,0.2-0.2,0.4-0.2,0.6
			l4.7,22.9c0.1,0.4,0.4,0.6,0.7,0.6h2.7c0.4,0,0.7-0.3,0.7-0.6l2.6-13.5l2.6,13.5c0.1,0.4,0.4,0.6,0.7,0.6h2.8
			c0.4,0,0.7-0.3,0.7-0.6l4.7-22.9c0-0.2,0-0.5-0.2-0.6c-0.1-0.2-0.4-0.3-0.6-0.3H98.5z"/>
	</defs>
	<clipPath id="SVGID_8_">
		<use xlink:href="#SVGID_7_"  style="overflow:visible;"/>
	</clipPath>
	
		<linearGradient id="SVGID_9_" gradientUnits="userSpaceOnUse" x1="-471.4737" y1="2310.1692" x2="-470.7547" y2="2310.1692" gradientTransform="matrix(0 50.9965 50.9965 0 -117720.0469 24061.2207)">
		<stop  offset="0" style="stop-color:#00ABE6"/>
		<stop  offset="1" style="stop-color:#0069B3"/>
	</linearGradient>
	<rect x="78.9" y="30.4" class="st2" width="23.3" height="24.4"/>
</g>
<g>
	<defs>
		<path id="SVGID_10_" d="M105.4,30.4c-0.4,0-0.8,0.3-0.8,0.8V54c0,0.4,0.3,0.8,0.8,0.8h3.1c0.4,0,0.8-0.3,0.8-0.8V31.1
			c0-0.4-0.3-0.8-0.8-0.8H105.4z"/>
	</defs>
	<clipPath id="SVGID_11_">
		<use xlink:href="#SVGID_10_"  style="overflow:visible;"/>
	</clipPath>
	
		<linearGradient id="SVGID_12_" gradientUnits="userSpaceOnUse" x1="-471.474" y1="2310.0432" x2="-470.7551" y2="2310.0432" gradientTransform="matrix(0 50.9969 50.9969 0 -117698.1563 24061.4297)">
		<stop  offset="0" style="stop-color:#00ABE6"/>
		<stop  offset="1" style="stop-color:#0069B3"/>
	</linearGradient>
	<rect x="104.7" y="30.4" class="st3" width="4.6" height="24.3"/>
</g>
<g>
	<defs>
		<path id="SVGID_13_" d="M105.4,23.2c-0.4,0-0.8,0.3-0.8,0.8v3.9c0,0.4,0.3,0.8,0.8,0.8h3.2c0.4,0,0.8-0.3,0.8-0.8V24
			c0-0.4-0.3-0.8-0.8-0.8H105.4z"/>
	</defs>
	<clipPath id="SVGID_14_">
		<use xlink:href="#SVGID_13_"  style="overflow:visible;"/>
	</clipPath>
	
		<linearGradient id="SVGID_15_" gradientUnits="userSpaceOnUse" x1="-471.4829" y1="2310.0444" x2="-470.764" y2="2310.0444" gradientTransform="matrix(0 50.9914 50.9914 0 -117685.3906 24061.0313)">
		<stop  offset="0" style="stop-color:#00ABE6"/>
		<stop  offset="1" style="stop-color:#0069B3"/>
	</linearGradient>
	<rect x="104.6" y="23.2" class="st4" width="4.7" height="5.5"/>
</g>
<g>
	<defs>
		<path id="SVGID_16_" d="M120.5,30.5c-1,0.1-1.9,0.3-2.9,0.4c-0.1-0.3-0.4-0.5-0.7-0.5h-3.1c-0.4,0-0.8,0.3-0.8,0.8V54
			c0,0.4,0.3,0.8,0.8,0.8h3.1c0.4,0,0.8-0.3,0.8-0.8V34.9l5.4-0.1V54c0,0.4,0.3,0.8,0.8,0.8h3.1c0.4,0,0.8-0.3,0.8-0.8V33.6
			c0-2.1-1.2-3.3-3.4-3.3C123.3,30.3,122.1,30.4,120.5,30.5"/>
	</defs>
	<clipPath id="SVGID_17_">
		<use xlink:href="#SVGID_16_"  style="overflow:visible;"/>
	</clipPath>
	
		<linearGradient id="SVGID_18_" gradientUnits="userSpaceOnUse" x1="-471.4734" y1="2309.9409" x2="-470.7544" y2="2309.9409" gradientTransform="matrix(0 50.9961 50.9961 0 -117677.6484 24061.0117)">
		<stop  offset="0" style="stop-color:#00ABE6"/>
		<stop  offset="1" style="stop-color:#0069B3"/>
	</linearGradient>
	<rect x="113.1" y="30.3" class="st5" width="14.6" height="24.5"/>
</g>
<g>
	<defs>
		<path id="SVGID_19_" d="M132,16.5c-0.4,0-0.8,0.3-0.8,0.8V54c0,0.4,0.3,0.8,0.8,0.8h3.1c0.4,0,0.8-0.3,0.8-0.8v-8.7l4.9,9
			c0.1,0.2,0.4,0.4,0.7,0.4h3.4c0.3,0,0.5-0.1,0.7-0.4c0.1-0.2,0.1-0.5,0-0.8l-6.9-12.2l6.4-9.7c0.1-0.1,0.1-0.3,0.1-0.4v-0.1
			c0-0.4-0.3-0.8-0.8-0.8H141c-0.3,0-0.5,0.1-0.6,0.4l-4.5,7.2V17.3c0-0.4-0.3-0.8-0.8-0.8H132z"/>
	</defs>
	<clipPath id="SVGID_20_">
		<use xlink:href="#SVGID_19_"  style="overflow:visible;"/>
	</clipPath>
	
		<linearGradient id="SVGID_21_" gradientUnits="userSpaceOnUse" x1="-471.4739" y1="2309.803" x2="-470.7549" y2="2309.803" gradientTransform="matrix(0 50.9968 50.9968 0 -117654.1797 24061.3633)">
		<stop  offset="0" style="stop-color:#00ABE6"/>
		<stop  offset="1" style="stop-color:#0069B3"/>
	</linearGradient>
	<rect x="131.2" y="16.5" class="st6" width="14.4" height="38.2"/>
</g>
<g>
	<defs>
		<path id="SVGID_22_" d="M151.9,34.5h5.2v5.4h-5.2V34.5z M166.2,16.5c-0.4,0-0.8,0.3-0.8,0.8v29.7c0,0.1,0,0.2,0,0.3v3.4h-13.5
			v-6.7h7.9c0.2,0,0.4-0.1,0.5-0.2l1.1-1.1c0.1-0.1,0.2-0.3,0.2-0.5v-8.2c0-2.2-1.2-3.4-3.4-3.4h-7.5c-2.2,0-3.4,1.2-3.4,3.4v17.5
			c0,2.2,1.2,3.4,3.4,3.4h18.6c0.4,0,0.8-0.3,0.8-0.8V17.3c0-0.4-0.3-0.8-0.8-0.8H166.2z"/>
	</defs>
	<clipPath id="SVGID_23_">
		<use xlink:href="#SVGID_22_"  style="overflow:visible;"/>
	</clipPath>
	
		<linearGradient id="SVGID_24_" gradientUnits="userSpaceOnUse" x1="-471.4739" y1="2309.6472" x2="-470.7549" y2="2309.6472" gradientTransform="matrix(0 50.9968 50.9968 0 -117625.9609 24061.3633)">
		<stop  offset="0" style="stop-color:#00ABE6"/>
		<stop  offset="1" style="stop-color:#0069B3"/>
	</linearGradient>
	<rect x="147.3" y="16.5" class="st7" width="22.7" height="38.2"/>
</g>
<g>
	<defs>
		<path id="SVGID_25_" d="M58.3,16.5H43.4c-0.4,0-0.8,0.3-0.8,0.8V54c0,0.4,0.3,0.8,0.8,0.8h3.3c0.4,0,0.8-0.3,0.8-0.8V37.8h7.1
			c0.4,0,0.8-0.3,0.8-0.8v-2.9c0-0.4-0.3-0.8-0.8-0.8h-7.1V20.9h10.9h0.6c0,0,0.1,0,0.1,0h3.2c0,0,0.1,0,0.1,0
			c0.4-0.1,0.6-0.4,0.6-0.7v-3.1c-0.1-0.3-0.4-0.6-0.7-0.6H58.3z"/>
	</defs>
	<clipPath id="SVGID_26_">
		<use xlink:href="#SVGID_25_"  style="overflow:visible;"/>
	</clipPath>
	
		<linearGradient id="SVGID_27_" gradientUnits="userSpaceOnUse" x1="-509.0686" y1="2302.0884" x2="-508.3497" y2="2302.0884" gradientTransform="matrix(-1.600000e-005 443.1675 443.1675 1.600000e-005 -1020158 225577.5313)">
		<stop  offset="0" style="stop-color:#E73088"/>
		<stop  offset="1" style="stop-color:#B90066"/>
	</linearGradient>
	<rect x="42.6" y="16.5" class="st8" width="20.4" height="38.2"/>
</g>
<g>
	<defs>
		<path id="SVGID_28_" d="M59.1,30.4L59.1,30.4c-0.4,0-0.8,0.3-0.8,0.8V54c0,0,0,0,0,0l0-3.5V31.1C58.4,30.7,58.7,30.4,59.1,30.4
			L59.1,30.4z"/>
	</defs>
	<clipPath id="SVGID_29_">
		<use xlink:href="#SVGID_28_"  style="overflow:visible;"/>
	</clipPath>
	
		<linearGradient id="SVGID_30_" gradientUnits="userSpaceOnUse" x1="-471.4747" y1="2310.4131" x2="-470.7557" y2="2310.4131" gradientTransform="matrix(0 50.9977 50.9977 0 -117767.125 24061.8438)">
		<stop  offset="0" style="stop-color:#E73088"/>
		<stop  offset="1" style="stop-color:#B90066"/>
	</linearGradient>
	<rect x="58.3" y="30.4" class="st9" width="0.8" height="23.6"/>
</g>
<g>
	<defs>
		<path id="SVGID_31_" d="M62.9,31.1l0,3.5V54c0,0.4-0.3,0.8-0.8,0.8h0c0.4,0,0.8-0.3,0.8-0.8L62.9,31.1
			C62.9,31.1,62.9,31.1,62.9,31.1z"/>
	</defs>
	<clipPath id="SVGID_32_">
		<use xlink:href="#SVGID_31_"  style="overflow:visible;"/>
	</clipPath>
	
		<linearGradient id="SVGID_33_" gradientUnits="userSpaceOnUse" x1="-556.1451" y1="2291.616" x2="-555.4261" y2="2291.616" gradientTransform="matrix(0 -50.9966 -50.9966 0 116927.0859 -28294.0508)">
		<stop  offset="0" style="stop-color:#E73088"/>
		<stop  offset="1" style="stop-color:#B90066"/>
	</linearGradient>
	<rect x="62.2" y="31.1" class="st10" width="0.8" height="23.6"/>
</g>
<g>
	<defs>
		<path id="SVGID_34_" d="M62.2,30.4h-3.1c-0.4,0-0.8,0.3-0.8,0.8v19.3l0,3.5c0,0.4,0.3,0.7,0.8,0.7h3.1c0.4,0,0.8-0.3,0.8-0.8V34.6
			l0-3.5C62.9,30.7,62.6,30.4,62.2,30.4L62.2,30.4z"/>
	</defs>
	<clipPath id="SVGID_35_">
		<use xlink:href="#SVGID_34_"  style="overflow:visible;"/>
	</clipPath>
	
		<linearGradient id="SVGID_36_" gradientUnits="userSpaceOnUse" x1="-471.474" y1="2310.3984" x2="-470.7551" y2="2310.3984" gradientTransform="matrix(0 50.9969 50.9969 0 -117762.6094 24061.4297)">
		<stop  offset="0" style="stop-color:#E73088"/>
		<stop  offset="1" style="stop-color:#B90066"/>
	</linearGradient>
	<rect x="58.3" y="30.4" class="st11" width="4.6" height="24.3"/>
</g>
<g>
	<defs>
		<path id="SVGID_37_" d="M69,23.3c-0.4,0-0.8,0.3-0.8,0.8v6.4h-2.7v0v0h-0.4c-0.4,0-0.7,0.3-0.8,0.7v2.8c0,0.4,0.3,0.7,0.8,0.7h3.1
			v15.8v0.8c0,1.8,0.8,3,2.3,3.3c0.3,0.1,0.7,0.1,1.1,0.1h7.8c0.4,0,0.8-0.3,0.8-0.8v-2.7c0-0.4-0.3-0.8-0.8-0.8h-6.6V34.7l0,0H76
			c0.4,0,0.8-0.3,0.8-0.8v-2.7c0-0.4-0.3-0.8-0.8-0.8h-3.1V24c0-0.4-0.3-0.7-0.6-0.7c0,0-0.1,0-0.2,0H69z"/>
	</defs>
	<clipPath id="SVGID_38_">
		<use xlink:href="#SVGID_37_"  style="overflow:visible;"/>
	</clipPath>
	
		<linearGradient id="SVGID_39_" gradientUnits="userSpaceOnUse" x1="-471.6328" y1="2310.2742" x2="-470.9138" y2="2310.2742" gradientTransform="matrix(0 51.1883 51.1883 0 -118186.5938 24159.7363)">
		<stop  offset="0" style="stop-color:#E73088"/>
		<stop  offset="1" style="stop-color:#B90066"/>
	</linearGradient>
	<rect x="64.4" y="23.3" class="st12" width="15.8" height="31.5"/>
</g>
<g>
</g>
<g>
</g>
<g>
</g>
<g>
</g>
<g>
</g>
<g>
</g>
<g>
</g>
<g>
</g>
<g>
</g>
<g>
</g>
<g>
</g>
<g>
</g>
<g>
</g>
<g>
</g>
<g>
</g>
</svg>
